<svg width="1620" height="382" viewBox="0 0 1620 382" fill="none" xmlns="http://www.w3.org/2000/svg">
<mask id="mask0_11_1931" style="mask-type:alpha" maskUnits="userSpaceOnUse" x="0" y="0" width="1620" height="382">
<rect width="1620" height="382" rx="14" fill="#203B93"/>
</mask>
<g mask="url(#mask0_11_1931)">
<path d="M489.463 301.839C252.095 191.511 358.182 -18.76 440.896 -110.105C600.241 -276.974 624.996 -123.392 815.384 -202.634C1005.77 -281.875 899.624 -119.652 960.365 -14.5165C1021.11 90.6193 1163.11 -138.638 1270.12 57.3845C1377.14 253.407 1098.77 554.718 1011.27 252.08C923.776 -50.5589 786.173 439.748 489.463 301.839Z" stroke="#2F36FF" stroke-width="2"/>
<path d="M565.165 261.046C382.374 175.981 463.92 14.1767 527.542 -56.0926C650.113 -184.456 669.256 -66.216 815.774 -127.107C962.291 -187.998 880.67 -63.1808 927.489 17.7864C974.308 98.7537 1083.49 -77.6455 1165.98 73.3118C1248.48 224.269 1034.36 456.058 966.831 223.039C899.302 -9.97951 793.653 367.376 565.165 261.046Z" stroke="#2F36FF" stroke-width="2"/>
<path d="M419.197 339.441C130.909 205.342 259.605 -49.9161 359.989 -160.783C553.38 -363.311 583.525 -176.812 814.66 -272.922C1045.79 -369.031 916.997 -172.115 990.811 -44.4204C1064.63 83.2739 1236.92 -195.017 1366.98 43.061C1497.03 281.139 1159.2 646.844 1052.78 279.319C946.362 -88.2052 779.557 507.065 419.197 339.441Z" stroke="#2F36FF" stroke-width="2"/>
<path d="M360.384 371.234C29.7915 217.629 177.616 -75.2843 292.853 -202.54C514.848 -435.014 549.284 -221.1 814.493 -331.529C1079.7 -441.957 931.806 -215.969 1016.38 -69.5451C1100.95 76.8793 1298.81 -242.489 1447.81 30.5164C1596.82 303.522 1209 723.292 1087.21 301.777C965.426 -119.737 773.624 563.241 360.384 371.234Z" stroke="#2F36FF" stroke-width="2"/>
<path d="M275.948 416.242C-116.008 233.855 58.8726 -113.118 195.307 -263.806C458.153 -539.074 499.191 -285.529 813.38 -416.116C1127.57 -546.703 952.533 -279.043 1052.92 -105.427C1153.31 68.1893 1387.45 -310.082 1564.33 13.6126C1741.2 337.308 1282.04 834.364 1137.26 334.7C992.479 -164.964 765.893 644.226 275.948 416.242Z" stroke="#2F36FF" stroke-width="2"/>
<path d="M177.344 468.658C-286.42 252.478 -80.0383 -157.626 81.123 -335.656C391.624 -660.854 440.475 -360.964 811.878 -515C1183.28 -669.036 976.615 -352.726 1095.55 -147.284C1214.49 58.1576 1490.92 -388.886 1700.5 -5.86811C1910.09 377.15 1367.7 964.384 1195.85 373.308C1024 -217.767 757.049 738.883 177.344 468.658Z" stroke="#2F36FF" stroke-width="2"/>
</g>
</svg>
